<svg width="136" height="136" viewBox="0 0 136 136" fill="none" xmlns="http://www.w3.org/2000/svg">
<g clip-path="url(#clip0_2699_579)">
<path d="M134.414 69.567C134.414 64.9734 134.041 60.355 133.247 55.8359H69.5078V81.8579H106.008C104.493 90.2504 99.6268 97.6746 92.5005 102.392V119.277H114.277C127.064 107.507 134.414 90.1263 134.414 69.567Z" fill="#4285F4"/>
<path d="M69.4961 135.587C87.7214 135.587 103.091 129.603 114.29 119.274L92.5136 102.389C86.4551 106.511 78.6336 108.845 69.521 108.845C51.8916 108.845 36.9439 96.9515 31.5806 80.9609H9.10938V98.3668C20.5809 121.186 43.946 135.587 69.4961 135.587V135.587Z" fill="#34A853"/>
<path d="M31.5644 81.0054C28.7338 72.6128 28.7338 63.525 31.5644 55.1324V37.7266H9.11799C-0.466415 56.8209 -0.466415 79.3169 9.11799 98.4113L31.5644 81.0054V81.0054Z" fill="#FBBC04"/>
<path d="M69.4961 27.1997C79.1302 27.0507 88.4415 30.6759 95.4187 37.3303L114.712 18.0374C102.495 6.56588 86.2813 0.259038 69.4961 0.457679C43.946 0.457679 20.5809 14.8591 9.10938 37.7028L31.5558 55.1087C36.8942 39.0933 51.8668 27.1997 69.4961 27.1997V27.1997Z" fill="#EA4335"/>
</g>
<defs>
<clipPath id="clip0_2699_579">
<rect width="135.15" height="135.15" fill="white" transform="translate(0.554688 0.453125)"/>
</clipPath>
</defs>
</svg>
