<svg width="215" height="88" viewBox="0 0 215 88" fill="none" xmlns="http://www.w3.org/2000/svg">
<rect x="0.875" y="0.710938" width="213.671" height="86.8961" rx="16.2782" fill="#E8F3F1"/>
<path d="M70.5971 47.2719C69.802 47.9709 69.4367 48.9819 69.6178 49.9734L72.347 63.6763C72.5773 64.8377 72.037 66.013 70.9655 66.6842C69.9156 67.3805 68.5188 67.4641 67.3737 66.9071L53.7767 60.4734C53.304 60.245 52.779 60.1225 52.2418 60.1085H51.4098C51.1212 60.1475 50.8388 60.2311 50.5809 60.3592L36.9809 66.8235C36.3086 67.1299 35.5472 67.2385 34.8012 67.1299C32.9838 66.8179 31.7711 65.2471 32.0689 63.59L34.8012 49.8871C34.9823 48.8872 34.617 47.8707 33.8219 47.1604L22.7362 37.4125C21.8091 36.5964 21.4867 35.371 21.9104 34.2653C22.3218 33.1624 23.3717 32.3575 24.6396 32.1764L39.8974 30.1683C41.0578 30.0597 42.0771 29.4191 42.599 28.4722L49.3222 15.9669C49.4818 15.6884 49.6875 15.4322 49.9362 15.215L50.2125 15.02C50.3568 14.8752 50.5226 14.7554 50.7068 14.6579L51.0414 14.5465L51.5633 14.3516H52.8557C54.0101 14.4602 55.0262 15.0868 55.5573 16.0226L62.3696 28.4722C62.8608 29.3829 63.8156 30.0152 64.9177 30.1683L80.1755 32.1764C81.4649 32.3435 82.5424 33.1512 82.9692 34.2653C83.3713 35.3821 83.0244 36.6076 82.0789 37.4125L70.5971 47.2719Z" fill="#199A8E"/>
<path d="M107.222 56.0822V50.8895L125.604 21.8517H129.696V29.4954H127.1L113.952 50.3079V50.6402H139.147V56.0822H107.222ZM127.391 64.3906V54.5036L127.432 52.1358V21.8517H133.518V64.3906H127.391ZM152.949 58.5748L152.638 60.8388C152.43 62.5005 152.077 64.2314 151.579 66.0315C151.094 67.8455 150.588 69.528 150.062 71.0789C149.55 72.6298 149.128 73.8622 148.795 74.7761H144.392C144.572 73.9176 144.821 72.7544 145.14 71.2866C145.458 69.8326 145.77 68.2056 146.074 66.4054C146.379 64.6053 146.607 62.7705 146.76 60.9011L146.967 58.5748H152.949ZM175.268 21.2701C177.165 21.2839 179.034 21.6301 180.876 22.3086C182.718 22.9872 184.379 24.0949 185.861 25.632C187.357 27.169 188.547 29.2461 189.434 31.8633C190.334 34.4666 190.791 37.7068 190.805 41.5841C190.805 45.309 190.431 48.6255 189.683 51.5334C188.935 54.4275 187.862 56.8715 186.463 58.8655C185.079 60.8596 183.396 62.3758 181.416 63.4144C179.436 64.4529 177.206 64.9722 174.728 64.9722C172.194 64.9722 169.944 64.4737 167.977 63.4767C166.011 62.4797 164.412 61.1019 163.179 59.3433C161.947 57.5708 161.178 55.5353 160.874 53.2366H167.209C167.624 55.0645 168.469 56.5461 169.743 57.6816C171.031 58.8032 172.692 59.364 174.728 59.364C177.843 59.364 180.274 58.007 182.018 55.2929C183.763 52.565 184.643 48.757 184.656 43.8689H184.324C183.604 45.0598 182.704 46.0845 181.624 46.943C180.558 47.8015 179.36 48.4662 178.03 48.937C176.701 49.4078 175.282 49.6432 173.772 49.6432C171.321 49.6432 169.092 49.0409 167.084 47.8362C165.076 46.6314 163.477 44.9767 162.286 42.8719C161.095 40.7671 160.5 38.3646 160.5 35.6644C160.5 32.978 161.109 30.5409 162.328 28.353C163.56 26.1651 165.277 24.4342 167.479 23.1602C169.694 21.8724 172.291 21.2424 175.268 21.2701ZM175.289 26.6705C173.669 26.6705 172.208 27.0721 170.906 27.8753C169.618 28.6646 168.6 29.7377 167.853 31.0948C167.105 32.4379 166.731 33.9335 166.731 35.5813C166.731 37.2291 167.091 38.7246 167.811 40.0678C168.545 41.3972 169.542 42.4565 170.802 43.2458C172.076 44.0212 173.53 44.4089 175.164 44.4089C176.383 44.4089 177.518 44.1735 178.57 43.7027C179.623 43.2319 180.544 42.5811 181.333 41.7503C182.122 40.9056 182.739 39.9501 183.182 38.8839C183.625 37.8176 183.846 36.696 183.846 35.519C183.846 33.9542 183.472 32.5003 182.725 31.1571C181.991 29.8139 180.98 28.7338 179.692 27.9168C178.404 27.086 176.936 26.6705 175.289 26.6705Z" fill="#199A8E"/>
</svg>
