<svg width="207" height="88" viewBox="0 0 207 88" fill="none" xmlns="http://www.w3.org/2000/svg">
<rect x="0.679688" y="0.710938" width="206.303" height="86.8961" rx="16.2782" fill="#E8F3F1"/>
<path d="M70.4096 50.1781C69.6145 50.8772 69.2492 51.8882 69.4303 52.8797L72.1595 66.5825C72.3898 67.7439 71.8495 68.9193 70.778 69.5905C69.7281 70.2868 68.3313 70.3703 67.1862 69.8133L53.5892 63.3796C53.1165 63.1513 52.5915 63.0287 52.0543 63.0148H51.2223C50.9337 63.0538 50.6513 63.1373 50.3934 63.2654L36.7934 69.7297C36.1211 70.0361 35.3597 70.1447 34.6137 70.0361C32.7963 69.7242 31.5836 68.1534 31.8814 66.4962L34.6137 52.7933C34.7948 51.7935 34.4295 50.7769 33.6344 50.0667L22.5487 40.3187C21.6216 39.5027 21.2992 38.2772 21.7229 37.1715C22.1343 36.0686 23.1842 35.2637 24.4521 35.0827L39.7099 33.0746C40.8703 32.966 41.8896 32.3254 42.4115 31.3784L49.1347 18.8732C49.2943 18.5947 49.5 18.3384 49.7487 18.1212L50.025 17.9262C50.1693 17.7814 50.3351 17.6617 50.5193 17.5642L50.8539 17.4528L51.3758 17.2578H52.6682C53.8226 17.3664 54.8387 17.9931 55.3698 18.9289L62.1821 31.3784C62.6733 32.2892 63.6281 32.9214 64.7302 33.0746L79.988 35.0827C81.2774 35.2498 82.3549 36.0575 82.7817 37.1715C83.1838 38.2884 82.8369 39.5138 81.8914 40.3187L70.4096 50.1781Z" fill="#199A8E"/>
<path d="M107.027 58.9807V53.7879L125.409 24.7501H129.501V32.3938H126.905L113.757 53.2063V53.5387H138.952V58.9807H107.027ZM127.195 67.2891V57.4021L127.237 55.0342V24.7501H133.323V67.2891H127.195ZM152.754 61.4732L152.443 63.7372C152.235 65.3989 151.882 67.1298 151.383 68.93C150.899 70.744 150.393 72.4264 149.867 73.9773C149.355 75.5282 148.932 76.7606 148.6 77.6745H144.197C144.377 76.816 144.626 75.6528 144.944 74.185C145.263 72.7311 145.574 71.104 145.879 69.3038C146.184 67.5037 146.412 65.6689 146.564 63.7995L146.772 61.4732H152.754ZM161.79 67.2891L180.359 30.566V30.2544H158.882V24.7501H187.005V30.4414L168.499 67.2891H161.79Z" fill="#199A8E"/>
</svg>
