<svg width="214" height="88" viewBox="0 0 214 88" fill="none" xmlns="http://www.w3.org/2000/svg">
<rect x="0.179688" y="0.710938" width="213.671" height="86.8961" rx="16.2782" fill="#E8F3F1"/>
<path d="M69.9096 47.2719C69.1145 47.9709 68.7492 48.9819 68.9303 49.9734L71.6595 63.6763C71.8898 64.8377 71.3495 66.013 70.278 66.6842C69.2281 67.3805 67.8313 67.4641 66.6862 66.9071L53.0892 60.4734C52.6165 60.245 52.0915 60.1225 51.5543 60.1085H50.7223C50.4337 60.1475 50.1513 60.2311 49.8934 60.3592L36.2934 66.8235C35.6211 67.1299 34.8597 67.2385 34.1137 67.1299C32.2963 66.8179 31.0836 65.2471 31.3814 63.59L34.1137 49.8871C34.2948 48.8872 33.9295 47.8707 33.1344 47.1604L22.0487 37.4125C21.1216 36.5964 20.7992 35.371 21.2229 34.2653C21.6343 33.1624 22.6842 32.3575 23.9521 32.1764L39.2099 30.1683C40.3703 30.0597 41.3896 29.4191 41.9115 28.4722L48.6347 15.9669C48.7943 15.6884 49 15.4322 49.2487 15.215L49.525 15.02C49.6693 14.8752 49.8351 14.7554 50.0193 14.6579L50.3539 14.5465L50.8758 14.3516H52.1682C53.3226 14.4602 54.3387 15.0868 54.8698 16.0226L61.6821 28.4722C62.1733 29.3829 63.1281 30.0152 64.2302 30.1683L79.488 32.1764C80.7774 32.3435 81.8549 33.1512 82.2817 34.2653C82.6838 35.3821 82.3369 36.6076 81.3914 37.4125L69.9096 47.2719Z" fill="#199A8E"/>
<path d="M106.527 56.0822V50.8895L124.909 21.8517H129.001V29.4954H126.405L113.257 50.3079V50.6402H138.452V56.0822H106.527ZM126.695 64.3906V54.5036L126.737 52.1358V21.8517H132.823V64.3906H126.695ZM152.254 58.5748L151.943 60.8388C151.735 62.5005 151.382 64.2314 150.883 66.0315C150.399 67.8455 149.893 69.528 149.367 71.0789C148.855 72.6298 148.432 73.8622 148.1 74.7761H143.697C143.877 73.9176 144.126 72.7544 144.444 71.2866C144.763 69.8326 145.074 68.2056 145.379 66.4054C145.684 64.6053 145.912 62.7705 146.064 60.9011L146.272 58.5748H152.254ZM173.887 64.9722C170.91 64.9722 168.279 64.4599 165.994 63.4352C163.723 62.4105 161.944 60.998 160.656 59.1979C159.368 57.3977 158.731 55.3483 158.745 53.0497C158.731 51.2495 159.098 49.5948 159.846 48.0854C160.608 46.5622 161.639 45.2952 162.941 44.2843C164.242 43.2596 165.696 42.6088 167.303 42.3319V42.0826C165.184 41.5702 163.488 40.4348 162.214 38.6762C160.94 36.9176 160.31 34.8958 160.324 32.611C160.31 30.437 160.884 28.4984 162.048 26.7952C163.225 25.0781 164.838 23.728 166.887 22.7448C168.937 21.7617 171.27 21.2701 173.887 21.2701C176.477 21.2701 178.789 21.7686 180.825 22.7656C182.874 23.7488 184.487 25.0989 185.664 26.8159C186.841 28.5192 187.437 30.4509 187.451 32.611C187.437 34.8958 186.786 36.9176 185.498 38.6762C184.21 40.4348 182.535 41.5702 180.472 42.0826V42.3319C182.064 42.6088 183.497 43.2596 184.771 44.2843C186.059 45.2952 187.084 46.5622 187.845 48.0854C188.621 49.5948 189.015 51.2495 189.029 53.0497C189.015 55.3483 188.364 57.3977 187.077 59.1979C185.789 60.998 184.003 62.4105 181.718 63.4352C179.447 64.4599 176.837 64.9722 173.887 64.9722ZM173.887 59.7172C175.646 59.7172 177.169 59.4264 178.457 58.8448C179.745 58.2493 180.742 57.4254 181.448 56.373C182.154 55.3068 182.514 54.0605 182.528 52.6343C182.514 51.1526 182.126 49.844 181.365 48.7085C180.617 47.5731 179.599 46.6799 178.311 46.0291C177.024 45.3783 175.549 45.0528 173.887 45.0528C172.212 45.0528 170.723 45.3783 169.421 46.0291C168.12 46.6799 167.095 47.5731 166.347 48.7085C165.599 49.844 165.233 51.1526 165.246 52.6343C165.233 54.0605 165.572 55.3068 166.264 56.373C166.97 57.4254 167.974 58.2493 169.276 58.8448C170.578 59.4264 172.115 59.7172 173.887 59.7172ZM173.887 39.9224C175.3 39.9224 176.553 39.6385 177.647 39.0708C178.741 38.5031 179.599 37.7138 180.222 36.7029C180.859 35.6921 181.185 34.5081 181.198 33.1511C181.185 31.8217 180.866 30.6586 180.243 29.6616C179.634 28.6646 178.782 27.896 177.688 27.356C176.594 26.8021 175.327 26.5251 173.887 26.5251C172.419 26.5251 171.132 26.8021 170.024 27.356C168.93 27.896 168.078 28.6646 167.469 29.6616C166.86 30.6586 166.562 31.8217 166.576 33.1511C166.562 34.5081 166.867 35.6921 167.49 36.7029C168.113 37.7138 168.971 38.5031 170.065 39.0708C171.173 39.6385 172.447 39.9224 173.887 39.9224Z" fill="#199A8E"/>
</svg>
