<svg width="104" height="92" viewBox="0 0 104 92" fill="none" xmlns="http://www.w3.org/2000/svg">
<path d="M49.1296 13.666L51.8723 17.332L54.615 13.666C59.1883 7.55314 66.515 3.58159 74.685 3.58159C88.551 3.58159 99.827 14.877 99.827 28.8777C99.827 34.6194 98.9115 39.9159 97.3216 44.8301L97.318 44.8413L97.3145 44.8524C93.5007 56.9213 85.6744 66.6781 77.1858 73.9735C68.6821 81.2819 59.7105 85.9491 53.9545 87.9076L53.9361 87.9139L53.9178 87.9203C53.525 88.059 52.7834 88.1875 51.8723 88.1875C50.9611 88.1875 50.2196 88.059 49.8267 87.9203L49.8084 87.9139L49.7901 87.9076C44.034 85.9491 35.0624 81.2819 26.5587 73.9735C18.0701 66.6781 10.2439 56.9213 6.4301 44.8524L6.42657 44.8413L6.42297 44.8301C4.83306 39.9159 3.91753 34.6194 3.91753 28.8777C3.91753 14.877 15.1936 3.58159 29.0595 3.58159C37.2296 3.58159 44.5563 7.55314 49.1296 13.666Z" stroke="#1F2A37" stroke-width="6.85068"/>
</svg>
