<svg width="585" height="541" viewBox="0 0 585 541" fill="none" xmlns="http://www.w3.org/2000/svg">
<path d="M321.461 540.104H263.538C215.248 540.104 176.112 503.93 176.112 459.294V404.534C176.112 389.902 163.28 378.004 147.41 378.004H88.1674C39.8776 378.004 0.742188 341.829 0.742188 297.194V243.653C0.742188 199.017 39.8776 162.843 88.1674 162.843H122.146C134.618 162.843 144.732 172.191 144.732 183.72C144.732 195.248 134.618 204.596 122.146 204.596H88.1674C64.822 204.596 45.8738 222.111 45.8738 243.69V297.231C45.8738 318.81 64.822 336.324 88.1674 336.324H147.41C188.185 336.324 221.284 366.882 221.284 404.608V459.368C221.284 480.947 240.232 498.461 263.578 498.461H321.501C344.847 498.461 363.795 480.947 363.795 459.368V418.871C363.795 384.692 349.404 352.545 323.26 328.38L229.959 242.101C195.3 210.028 176.192 167.425 176.192 122.087V81.5523C176.192 36.9164 215.328 0.742188 263.618 0.742188H321.541C369.831 0.742188 408.966 36.9164 408.966 81.5523V136.312C408.966 150.945 421.798 162.843 437.668 162.843H496.911C545.201 162.843 584.336 199.017 584.336 243.653V297.194C584.336 341.829 545.201 378.004 496.911 378.004H462.973C450.5 378.004 440.387 368.655 440.387 357.127C440.387 345.598 450.5 336.25 462.973 336.25H496.911C520.257 336.25 539.205 318.736 539.205 297.157V243.616C539.205 222.037 520.257 204.523 496.911 204.523H437.589C396.814 204.523 363.755 173.965 363.755 136.276V81.5523C363.755 59.9734 344.807 42.459 321.461 42.459H263.538C240.192 42.459 221.244 59.9364 221.244 81.5523V122.05C221.244 156.229 235.635 188.375 261.779 212.541L355.08 298.783C389.779 330.818 408.847 373.459 408.847 418.797V459.294C408.887 503.893 369.751 540.104 321.461 540.104Z" fill="black"/>
</svg>
